<svg xmlns="http://www.w3.org/2000/svg" width="1876.568" height="466.25" viewBox="0 0 1876.568 466.25">
  <defs>
    <style>
      .cls-1 {
        fill: #ff4655;
        fill-rule: evenodd;
      }
    </style>
  </defs>
  <path id="VALORO_sTORE" data-name="VALORO sTORE" class="cls-1" d="M14.388,335.163a2.991,2.991,0,0,0,.448,4.032L245.082,639.321a18.216,18.216,0,0,0,14.782,7.167h42.555q5.376,0,5.376-5.375V338.3a5.354,5.354,0,0,0-5.376-5.375H256.28a5.354,5.354,0,0,0-5.375,5.375V549.731L89.643,340.091a18.256,18.256,0,0,0-14.782-7.167H17.972A4.05,4.05,0,0,0,14.388,335.163ZM343.18,645.368a4.116,4.116,0,0,0,3.583,2.016h56.89a18.238,18.238,0,0,0,14.782-7.167L496.378,538.98l77.5,101.237a18.219,18.219,0,0,0,14.782,7.167h42.555q5.376,0,5.376-5.375V339.2q0-5.376-5.376-5.375H588.656a18.236,18.236,0,0,0-14.782,7.167L343.628,641.113C342.431,642.611,342.284,644.025,343.18,645.368ZM579.7,430.577v120.05L533.558,490.6Zm122.959-95.19a5.178,5.178,0,0,0-1.568,3.808V642.009a5.354,5.354,0,0,0,5.376,5.375H839.505q8.5,0,14.334-7.167l33.6-43.451a3.6,3.6,0,0,0,.224-4.032,3.925,3.925,0,0,0-3.807-2.239H758.426V339.2q0-5.376-5.823-5.375H706.464A5.185,5.185,0,0,0,702.656,335.387ZM922.373,553.763a159.974,159.974,0,0,0,33.6,52.186,157.668,157.668,0,0,0,113.781,47.706,163.784,163.784,0,0,0,63.61-12.318,160.519,160.519,0,0,0,51.74-34.268,165.386,165.386,0,0,0,35.16-51.514,161.776,161.776,0,0,0,13.44-63.609,156.378,156.378,0,0,0-12.1-63.385,167.641,167.641,0,0,0-34.26-52.186,161.927,161.927,0,0,0-114.9-48.827,158.329,158.329,0,0,0-114.9,45.915,162.912,162.912,0,0,0-47.258,115.795A170.913,170.913,0,0,0,922.373,553.763Zm53.306-104.372a114.41,114.41,0,0,1,21.95-34.717,103.458,103.458,0,0,1,32.7-23.741,98.658,98.658,0,0,1,39.87-9.183,97.264,97.264,0,0,1,40.09,8.511,108.731,108.731,0,0,1,33.37,23.07,111.328,111.328,0,0,1,22.85,34.268,112.207,112.207,0,0,1,.89,83.542,111.452,111.452,0,0,1-22.17,34.94,109.106,109.106,0,0,1-32.93,23.966,94.169,94.169,0,0,1-80.18.9,107.422,107.422,0,0,1-33.147-23.294,113.658,113.658,0,0,1-22.846-34.492,103.917,103.917,0,0,1-8.511-41.659A110.148,110.148,0,0,1,975.679,449.391ZM1285.21,641.113a5.357,5.357,0,0,0,5.37,5.375h46.14c3.88,0,5.83-1.792,5.83-5.375v-251.3h131.69L1386,504.936q-3.15,3.14,0,6.72l98.1,127.665a18.213,18.213,0,0,0,14.78,7.167h56.89a3.625,3.625,0,0,0,3.36-2.016,4.015,4.015,0,0,0-.23-4.255L1457.67,508.072l70.77-92.726a17.184,17.184,0,0,0,4.04-11.2V338.3a5.357,5.357,0,0,0-5.38-5.375H1290.58a5.357,5.357,0,0,0-5.37,5.375V641.113Zm293.85-87.35a159.838,159.838,0,0,0,33.6,52.186,157.663,157.663,0,0,0,113.78,47.706,163.784,163.784,0,0,0,63.61-12.318,160.368,160.368,0,0,0,51.73-34.268,165.245,165.245,0,0,0,35.17-51.514,161.776,161.776,0,0,0,13.44-63.609,156.378,156.378,0,0,0-12.1-63.385,167.668,167.668,0,0,0-34.27-52.186,161.927,161.927,0,0,0-114.9-48.827,158.314,158.314,0,0,0-114.89,45.915,162.836,162.836,0,0,0-47.26,115.795A170.969,170.969,0,0,0,1579.06,553.763Zm53.31-104.372a114.3,114.3,0,0,1,21.95-34.717,103.331,103.331,0,0,1,32.7-23.741,98.611,98.611,0,0,1,39.86-9.183,97.276,97.276,0,0,1,40.1,8.511,108.731,108.731,0,0,1,33.37,23.07,111.124,111.124,0,0,1,22.84,34.268,112.272,112.272,0,0,1,.9,83.542,111.631,111.631,0,0,1-22.17,34.94,109.23,109.23,0,0,1-32.93,23.966,94.17,94.17,0,0,1-80.18.9,107.352,107.352,0,0,1-33.15-23.294,113.494,113.494,0,0,1-22.84-34.492,103.857,103.857,0,0,1-8.52-41.659A110.058,110.058,0,0,1,1632.37,449.391ZM706.79,731.924q8.144,8.472,21.828,11.24l15.963,3.258q6.842,1.305,10.344,4.968a11.993,11.993,0,0,1,3.5,8.552,12.507,12.507,0,0,1-4.724,10.1q-4.726,3.909-13.683,3.909a27.236,27.236,0,0,1-7.982-1.14,36.369,36.369,0,0,1-7-2.932,42.772,42.772,0,0,1-6.027-3.991q-2.772-2.2-5.049-4.316A1.87,1.87,0,0,0,712.41,761a1.733,1.733,0,0,0-1.384.9L700.763,775.09a1.771,1.771,0,0,0,0,2.607,42.536,42.536,0,0,0,6.19,5.619,49.042,49.042,0,0,0,8.715,5.213,56.383,56.383,0,0,0,24.189,5.294,47.789,47.789,0,0,0,17.592-3.014,39.388,39.388,0,0,0,12.95-8.063,33.955,33.955,0,0,0,7.982-11.4,32.753,32.753,0,0,0,2.688-12.868,31.422,31.422,0,0,0-8.226-21.339,36.485,36.485,0,0,0-9.937-7.575,47.746,47.746,0,0,0-13.764-4.642l-15.963-3.095q-6.193-1.3-9.285-4.724a11.721,11.721,0,0,1-3.1-8.144,12.2,12.2,0,0,1,1.3-5.538,14.493,14.493,0,0,1,3.584-4.561,18.064,18.064,0,0,1,5.619-3.177,21.442,21.442,0,0,1,7.412-1.221,27.492,27.492,0,0,1,6.679.814,31.628,31.628,0,0,1,6.108,2.2,32.109,32.109,0,0,1,5.05,3.013,24.877,24.877,0,0,1,3.665,3.258,1.923,1.923,0,0,0,1.547.815,2.114,2.114,0,0,0,1.547-.652l11.24-11.728a1.7,1.7,0,0,0,.163-2.606q-4.726-5.865-14.09-10.344t-22.072-4.479a42.775,42.775,0,0,0-15.393,2.769,42.273,42.273,0,0,0-12.7,7.493,35.008,35.008,0,0,0-8.634,11.239,31.92,31.92,0,0,0-3.176,14.172Q698.646,723.457,706.79,731.924Zm85.191-36.487a1.948,1.948,0,0,0,1.954,1.955h29.972v91.381a1.728,1.728,0,0,0,1.955,1.955H842.64a1.728,1.728,0,0,0,1.954-1.955V697.392h36.325a1.454,1.454,0,0,0,1.384-.733,1.316,1.316,0,0,0-.244-1.548l-12.054-15.8a6.638,6.638,0,0,0-5.375-2.607h-70.7a1.948,1.948,0,0,0-1.954,1.955v16.778ZM894.926,757.01a58.157,58.157,0,0,0,12.217,18.976,57.332,57.332,0,0,0,41.374,17.348,59.565,59.565,0,0,0,23.131-4.479,58.354,58.354,0,0,0,18.813-12.461,60.086,60.086,0,0,0,12.789-18.733,58.825,58.825,0,0,0,4.89-23.13,56.954,56.954,0,0,0-4.4-23.049,60.961,60.961,0,0,0-12.464-18.977A58.874,58.874,0,0,0,949.5,674.75a57.563,57.563,0,0,0-41.782,16.7,59.236,59.236,0,0,0-17.185,42.107A62.154,62.154,0,0,0,894.926,757.01Zm19.384-37.954a41.6,41.6,0,0,1,7.982-12.624,37.592,37.592,0,0,1,11.891-8.633,35.855,35.855,0,0,1,14.5-3.339,35.371,35.371,0,0,1,14.579,3.094,39.577,39.577,0,0,1,12.135,8.389A40.452,40.452,0,0,1,983.7,718.4a40.821,40.821,0,0,1,.325,30.38,40.506,40.506,0,0,1-8.063,12.705,39.676,39.676,0,0,1-11.972,8.715,34.25,34.25,0,0,1-29.158.325,39.028,39.028,0,0,1-12.054-8.47,41.354,41.354,0,0,1-8.307-12.542,37.792,37.792,0,0,1-3.095-15.149A40.049,40.049,0,0,1,914.31,719.056Zm112.56,69.717a1.844,1.844,0,0,0,.57,1.385,1.872,1.872,0,0,0,1.38.57h16.78c1.41,0,2.12-.652,2.12-1.955V697.392h47.89l-32.09,41.862a1.594,1.594,0,0,0,0,2.444l35.67,46.424a6.621,6.621,0,0,0,5.37,2.606h20.69a1.314,1.314,0,0,0,1.22-.733,1.453,1.453,0,0,0-.08-1.548L1089.58,740.4l25.74-33.719a6.283,6.283,0,0,0,1.46-4.072V678.659a1.948,1.948,0,0,0-1.95-1.955h-86.01a1.881,1.881,0,0,0-1.38.571,1.849,1.849,0,0,0-.57,1.384V788.773ZM1140.32,677.6a1.891,1.891,0,0,0-.57,1.385V789.1a1.946,1.946,0,0,0,1.95,1.955h70.37a1.733,1.733,0,0,0,1.96-1.955V772.321a1.887,1.887,0,0,0-.57-1.384,1.918,1.918,0,0,0-1.39-.57H1160.6v-25.9h40.72c1.3,0,1.96-.705,1.96-2.118V725.735a1.733,1.733,0,0,0-1.96-1.955H1160.6V697.717h40.23a6.653,6.653,0,0,0,5.38-2.606l12.05-15.8a1.323,1.323,0,0,0,.25-1.548,1.473,1.473,0,0,0-1.39-.733H1141.7A1.884,1.884,0,0,0,1140.32,677.6Z" transform="translate(-13.813 -327.562)"/>
</svg>
